<svg xmlns="http://www.w3.org/2000/svg" width="532.833" height="449.137" viewBox="0 0 532.833 449.137">
  <g id="Group_628" data-name="Group 628" transform="translate(-108.899 1261.046)">
    <path id="Path_1214" data-name="Path 1214" d="M330.863-1229.508c-47.3,37.994-54.019,43.422-74.437,59.964-8.529,7.237-22.745,18.351-31.274,25.071-36.185,28.689-113.982,90.462-116.05,92.788-2.585,2.326,20.419,38.511,24.3,38.511,1.292,0,8.529-5.169,16.283-11.631,8.012-6.462,15.508-11.631,17.059-11.631,1.809,0,3.1,35.41,3.36,111.656l.775,111.915h36.185l-1.034-126.647c-1.034-121.219-.775-126.906,3.877-132.075s100.025-82.192,139.312-112.173c10.08-7.754,18.609-14.732,18.868-16.025,2.585-5.945,10.08-.517,117.084,85.552,28.948,23.52,52.985,42.646,53.5,42.9.258.258,1.034,58.671,1.292,129.49l.517,128.973,18.868.775c13.7.517,18.609,0,18.868-2.585V-922.712c-.258-63.582.517-106.229,2.068-108.555,2.068-3.1,5.428-1.551,18.092,8.529l15.766,12.148,10.6-13.7c18.092-22.486,19.126-24.812,14.991-28.689-3.877-3.877-71.077-56.862-133.884-106.229-21.969-17.059-41.1-32.308-42.647-33.859-1.551-1.292-10.855-8.788-20.936-16.542-9.822-7.754-28.689-22.486-41.871-32.825s-25.329-18.868-27.139-18.609C371.442-1261.04,352.315-1246.825,330.863-1229.508Z" transform="translate(0 0)" fill="#fff"/>
    <path id="Path_1215" data-name="Path 1215" d="M704.182-860.278c-.775,2.068-1.034,24.554-.775,49.884l.775,46.523h33.6v-98.216l-16.283-.775C709.868-863.38,704.958-862.6,704.182-860.278Z" transform="translate(-347.215 -232.502)" fill="#fff"/>
    <path id="Path_1216" data-name="Path 1216" d="M524.472-780.965c-41.871,21.711-69.785,78.314-60.739,123.287,13.182,64.357,72.628,107.262,133.884,96.924,48.333-8.012,84.518-41.871,97.441-90.462,13.7-50.659-14.732-108.813-64.1-132.333-5.428-2.585-10.855-3.877-12.148-3.1-1.551.775-2.585,9.046-2.585,18.092,0,15.766.258,16.542,8.529,21.711,21.194,12.923,37.994,43.422,37.994,68.493-.258,44.714-38.253,82.708-82.708,82.708-44.2,0-82.708-38.511-82.708-82.45,0-13.182,1.034-17.059,9.563-36.96,4.911-11.114,17.059-24.812,28.173-31.791,9.046-5.428,9.046-5.428,8.271-22.486-.517-9.3-1.809-17.317-3.36-17.576C538.687-787.427,531.709-784.584,524.472-780.965Z" transform="translate(-206.274 -276.923)" fill="#fff"/>
  </g>
</svg>
