<svg xmlns="http://www.w3.org/2000/svg" xmlns:xlink="http://www.w3.org/1999/xlink" width="26" height="26" viewBox="0 0 26 26">
  <defs>
    <clipPath id="clip-path">
      <rect id="Rectangle_449" data-name="Rectangle 449" width="24" height="23.989" fill="none"/>
    </clipPath>
  </defs>
  <g id="Group_558" data-name="Group 558" transform="translate(-166 -169)">
    <rect id="Rectangle_503" data-name="Rectangle 503" width="26" height="26" transform="translate(166 169)" fill="#ff931e" opacity="0"/>
    <g id="schließen_löschen_02" data-name="schließen / löschen 02" transform="translate(188 190.996)">
      <g id="schließen_löschen_02-2" data-name="schließen / löschen 02" transform="translate(-21 -20.99)" clip-path="url(#clip-path)">
        <path id="Path_1093" data-name="Path 1093" d="M20.745,20.233A12,12,0,1,0,3.431,20.4l.114.114.171.114a12,12,0,0,0,16.514.114l.286-.286.229-.286m-4.8-3.771-3.657-3.657L8.631,16.4a.571.571,0,0,1-.8-.8L11.488,12,7.831,8.347a.571.571,0,0,1,.8-.8L12.288,11.2l3.657-3.657a.571.571,0,1,1,.8.8L13.088,12l3.657,3.657a.571.571,0,0,1-.8.8" transform="translate(-0.003 -0.004)" fill="#f36b23"/>
      </g>
    </g>
  </g>
</svg>
