<svg xmlns="http://www.w3.org/2000/svg" width="40" height="45.497" viewBox="0 0 40 45.497">
  <g id="Group_372" data-name="Group 372" transform="translate(8)">
    <path id="Path_1016" data-name="Path 1016" d="M39.137,32.132l-4.265-2.417L39,27.44a1.422,1.422,0,1,0-1.422-2.417l-5.545,3.128-4.408-2.559V20.047l4.408-2.559,5.545,3.128A1.464,1.464,0,1,0,39,18.057l-4.123-2.275,4.265-2.417a1.422,1.422,0,0,0-1.422-2.417L33.45,13.365V8.531a1.422,1.422,0,1,0-2.844,0v6.4L26.2,17.488l-4.834-2.844V9.668L26.91,6.4a1.422,1.422,0,0,0-1.422-2.417L21.365,6.256V1.422a1.422,1.422,0,0,0-2.844,0V6.256L14.4,3.981A1.422,1.422,0,0,0,12.976,6.4l5.545,3.27v5.118L13.687,17.63l-4.408-2.7v-6.4a1.422,1.422,0,0,0-2.844,0v4.834L2.171,10.948A1.422,1.422,0,0,0,.749,13.365l4.265,2.417L.891,18.057a1.422,1.422,0,0,0-.569,1.99,1.564,1.564,0,0,0,1.99.569l5.545-3.128,4.408,2.559v5.545L7.858,28.151l-5.545-3.27A1.422,1.422,0,1,0,.891,27.3l4.123,2.275L.749,31.99A1.422,1.422,0,0,0,.18,34.123a1.422,1.422,0,0,0,1.99.569l4.265-2.417v4.692a1.422,1.422,0,0,0,1.422,1.422h0A1.422,1.422,0,0,0,9.28,36.966v-6.4l4.408-2.559,4.834,2.844v5.118L12.976,39.1a1.422,1.422,0,0,0-.569,1.99,1.564,1.564,0,0,0,1.99.569l4.123-2.417v4.834a1.422,1.422,0,1,0,2.844,0V39.241l4.123,2.417A1.464,1.464,0,1,0,26.91,39.1l-5.545-3.128V30.71L26.2,27.867l4.408,2.559v6.54a1.422,1.422,0,0,0,1.422,1.422h0a1.422,1.422,0,0,0,1.422-1.422V32.274l4.265,2.417a1.464,1.464,0,1,0,1.422-2.559M19.943,28.293,15.109,25.45v-5.4L19.943,17.2l4.834,2.844v5.545Z" transform="translate(-7.909)" fill="#0bf"/>
  </g>
</svg>
