<svg xmlns="http://www.w3.org/2000/svg" xmlns:xlink="http://www.w3.org/1999/xlink" width="28" height="27.987" viewBox="0 0 28 27.987">
  <defs>
    <clipPath id="clip-path">
      <rect id="Rectangle_460" data-name="Rectangle 460" width="28" height="27.987" fill="none"/>
    </clipPath>
  </defs>
  <g id="schließen_löschen_02" data-name="schließen / löschen 02" transform="translate(21 15.99)">
    <g id="schließen_löschen_02-2" data-name="schließen / löschen 02" transform="translate(-21 -15.99)" clip-path="url(#clip-path)">
      <path id="Path_1109" data-name="Path 1109" d="M24.2,23.6A14,14,0,1,0,4,23.8l.133.133.2.133A14,14,0,0,0,23.6,24.2l.333-.333.267-.333m-5.6-4.4L14.335,14.87l-4.267,4.267a.667.667,0,0,1-.933-.933L13.4,14,9.135,9.736a.667.667,0,0,1,.933-.933l4.267,4.267L18.6,8.8a.667.667,0,1,1,.933.933L15.269,14l4.267,4.267a.667.667,0,0,1-.933.933" transform="translate(-0.002 -0.003)" fill="#c9c9c9"/>
    </g>
  </g>
</svg>
