<svg xmlns="http://www.w3.org/2000/svg" xmlns:xlink="http://www.w3.org/1999/xlink" width="68" height="68" viewBox="0 0 68 68">
  <defs>
    <clipPath id="clip-path">
      <rect id="Rectangle_447" data-name="Rectangle 447" width="68" height="68" fill="none"/>
    </clipPath>
  </defs>
  <g id="bearbeiten" transform="translate(21 21)">
    <g id="bearbeiten-2" data-name="bearbeiten" transform="translate(-21 -21)" clip-path="url(#clip-path)">
      <path id="Path_1091" data-name="Path 1091" d="M34,0A34,34,0,1,0,68,34,34,34,0,0,0,34,0M27.362,47.276h-.324l-7.771,2.267a.923.923,0,0,1-1.133-1.133l2.59-7.448v-.324L37.562,23.962,44.2,30.6ZM49.7,25.257l-3.562,3.562-6.638-6.8,3.562-3.562a.971.971,0,0,1,1.3,0h0l5.343,5.5a.971.971,0,0,1,0,1.3h0Z" fill="#f97f21"/>
    </g>
  </g>
</svg>
