<svg id="heizt" xmlns="http://www.w3.org/2000/svg" xmlns:xlink="http://www.w3.org/1999/xlink" width="40" height="45.568" viewBox="0 0 40 45.568">
  <defs>
    <clipPath id="clip-path">
      <rect id="Rectangle_414" data-name="Rectangle 414" width="40" height="45.568" fill="none"/>
    </clipPath>
  </defs>
  <g id="Group_370" data-name="Group 370" clip-path="url(#clip-path)">
    <path id="Path_1010" data-name="Path 1010" d="M20.288,45.568A1.688,1.688,0,0,1,18.6,43.88a11.983,11.983,0,0,1,3.038-8.1,9.113,9.113,0,0,0,0-11.983A11.983,11.983,0,0,1,18.6,15.7a11.982,11.982,0,0,1,3.038-8.1,8.776,8.776,0,0,0,2.194-5.907,1.688,1.688,0,0,1,3.376,0,11.982,11.982,0,0,1-3.038,8.1,8.776,8.776,0,0,0-2.363,6.076A8.776,8.776,0,0,0,24.17,21.94a12.32,12.32,0,0,1,0,16.033,8.776,8.776,0,0,0-2.194,5.907,1.688,1.688,0,0,1-1.688,1.688" transform="translate(12.792 0)" fill="#ff5100"/>
    <path id="Path_1011" data-name="Path 1011" d="M10.989,45.568A1.688,1.688,0,0,1,9.3,43.88a11.982,11.982,0,0,1,2.869-8.1,9.113,9.113,0,0,0,0-11.983A11.982,11.982,0,0,1,9.3,15.7a11.982,11.982,0,0,1,2.869-7.932,8.776,8.776,0,0,0,2.363-6.076,1.688,1.688,0,0,1,3.376,0,11.982,11.982,0,0,1-3.038,8.1,8.776,8.776,0,0,0-2.363,6.076,8.776,8.776,0,0,0,2.363,6.076,12.32,12.32,0,0,1,0,16.033,8.776,8.776,0,0,0-2.194,5.907,1.688,1.688,0,0,1-1.688,1.688" transform="translate(6.395 0)" fill="#ff5100"/>
    <path id="Path_1012" data-name="Path 1012" d="M1.688,45.568A1.688,1.688,0,0,1,0,43.88a11.982,11.982,0,0,1,3.038-8.1A8.776,8.776,0,0,0,5.4,29.7a8.776,8.776,0,0,0-2.363-6.076,11.875,11.875,0,0,1,0-15.864A8.776,8.776,0,0,0,5.232,1.688a1.688,1.688,0,0,1,3.376,0,11.982,11.982,0,0,1-2.869,8.1,8.776,8.776,0,0,0,0,11.983,11.983,11.983,0,0,1,3.038,8.1,11.982,11.982,0,0,1-3.038,8.1A8.776,8.776,0,0,0,3.376,43.88a1.688,1.688,0,0,1-1.688,1.688" transform="translate(0 0)" fill="#ff5100"/>
  </g>
</svg>
