<svg xmlns="http://www.w3.org/2000/svg" xmlns:xlink="http://www.w3.org/1999/xlink" width="15" height="15" viewBox="0 0 15 15">
  <defs>
    <clipPath id="clip-path">
      <rect id="Rectangle_441" data-name="Rectangle 441" width="15" height="15" fill="none"/>
    </clipPath>
  </defs>
  <g id="frage" transform="translate(21 22)">
    <g id="Group_419" data-name="Group 419" transform="translate(-21 -22)" clip-path="url(#clip-path)">
      <path id="Path_1085" data-name="Path 1085" d="M7.5,0A7.5,7.5,0,1,0,15,7.5,7.5,7.5,0,0,0,7.5,0m.536,10.571a.214.214,0,0,1-.071.143l-.143.071H7.25l-.143-.071a.214.214,0,0,1-.071-.143V10a.214.214,0,0,1,.071-.143l.143-.071h.607L8,9.857A.214.214,0,0,1,8.071,10ZM9.393,6.679a5.322,5.322,0,0,1-.643.786l-.536.607A1.143,1.143,0,0,0,8,8.643c0,.179-.036.286-.036.393a.23.23,0,0,1-.214.214H7.321l-.143-.071a.179.179,0,0,1-.071-.143V8.679a1.607,1.607,0,0,1,.25-.821,5.607,5.607,0,0,1,.679-.786l.536-.607a.893.893,0,0,0,.179-.536.786.786,0,0,0-.357-.679A1.393,1.393,0,0,0,7.571,5,1.179,1.179,0,0,0,6.286,6.071h0a.214.214,0,0,1-.25.214H5.571l-.143-.071a.214.214,0,0,1-.071-.143,1.821,1.821,0,0,1,.286-.929A1.964,1.964,0,0,1,6.429,4.5a2.464,2.464,0,0,1,1.143-.25,2.536,2.536,0,0,1,1.143.25,1.607,1.607,0,0,1,.679.607,1.536,1.536,0,0,1,.214.786,1.5,1.5,0,0,1-.214.821Z" fill="#c9c9c9"/>
    </g>
  </g>
</svg>
