<svg xmlns="http://www.w3.org/2000/svg" xmlns:xlink="http://www.w3.org/1999/xlink" width="40" height="38.612" viewBox="0 0 40 38.612">
  <defs>
    <clipPath id="clip-path">
      <rect id="Rectangle_474" data-name="Rectangle 474" width="40" height="38.612" fill="none"/>
    </clipPath>
  </defs>
  <g id="hautpraum_02" data-name="hautpraum 02" transform="translate(20 19.306)">
    <g id="hautpraum_02-2" data-name="hautpraum 02" transform="translate(-20 -19.306)" clip-path="url(#clip-path)">
      <path id="Path_1148" data-name="Path 1148" d="M40,14.622a1.25,1.25,0,0,0-1.25-.875H25.375L21.25.872a1.25,1.25,0,0,0-2.375,0l-4.25,12.875H1.25A1.25,1.25,0,0,0,.5,16l10.75,8.125L7.25,37a1.25,1.25,0,0,0,.5,1.375l.75.25.75-.25L20,30.5l10.875,7.875A1.25,1.25,0,0,0,32.75,37l-4-12.875,10.75-8a1.25,1.25,0,0,0,.5-1.375" transform="translate(0 0.003)" fill="#ff5100"/>
    </g>
  </g>
</svg>
