<svg xmlns="http://www.w3.org/2000/svg" xmlns:xlink="http://www.w3.org/1999/xlink" width="32" height="32.01" viewBox="0 0 32 32.01">
  <defs>
    <clipPath id="clip-path">
      <rect data-name="Rectangle 410" width="32" height="32.01" fill="none"/>
    </clipPath>
  </defs>
  <g transform="translate(42 16.005)">
    <g data-name="Group 366" transform="translate(-42 -16.005)" clip-path="url(#clip-path)">
      <path data-name="Path 966" d="M31.1,12.9l-3.4-.4a11.9,11.9,0,0,0-.9-2.2l2.1-2.7a1,1,0,0,0-.1-1.3l-3.1-3a1,1,0,0,0-1.3-.1l-2.6,2-2.2-.9L19.1.9a1,1,0,0,0-1-.9H13.8a1,1,0,0,0-1,.9l-.5,3.4-2.2.9L7.5,3.1a1,1,0,0,0-1.3.1l-3,3.1a1,1,0,0,0-.1,1.3l2.1,2.7a12.4,12.4,0,0,0-.9,2.2L.9,13A1,1,0,0,0,0,14v4.3a1,1,0,0,0,.9,1l3.4.4a12.8,12.8,0,0,0,.9,2.2L3.1,24.5a1,1,0,0,0,.1,1.3l3,3a1,1,0,0,0,1.3.1l2.7-2.1,2.2.9.5,3.4a1,1,0,0,0,1,.9h4.3a1,1,0,0,0,1-.9l.5-3.4,2.2-.9,2.7,2.1a1,1,0,0,0,1.3-.1l3.1-3a1,1,0,0,0,.1-1.3L27,21.8a12.4,12.4,0,0,0,.9-2.2l3.4-.4a1,1,0,0,0,.9-1V13.9a1,1,0,0,0-.9-1M21,16a5,5,0,1,1-5-5,5,5,0,0,1,5,5" fill="#fff"/>
    </g>
  </g>
</svg>
