<svg xmlns="http://www.w3.org/2000/svg" xmlns:xlink="http://www.w3.org/1999/xlink" width="48" height="48.257" viewBox="0 0 48 48.257">
  <defs>
    <clipPath id="clip-path">
      <rect id="Rectangle_445" data-name="Rectangle 445" width="48" height="48.257" fill="none"/>
    </clipPath>
  </defs>
  <g id="urlaub_-_abflug_02" data-name="urlaub - abflug 02" transform="translate(501.95 73.03)">
    <g id="Group_426" data-name="Group 426" transform="translate(-501.95 -73.03)" clip-path="url(#clip-path)">
      <path id="Path_1089" data-name="Path 1089" d="M41.04,40.951,35.261,18.476l11.4-11.559a4.174,4.174,0,0,0,0-5.779h0a4.174,4.174,0,0,0-5.779,0L29.481,12.7,7.006,6.917A2.569,2.569,0,0,0,4.6,11.252l.482.482,16.214,9.311L11.18,32.121,2.03,31.479A1.926,1.926,0,0,0,.585,34.69l.321.321,7.866,4.495,4.495,7.866A1.926,1.926,0,0,0,16.8,46.249L16,36.938,26.913,26.824l9.311,16.054a2.594,2.594,0,1,0,4.816-1.926" transform="translate(0.057 -0.014)" fill="#f36b23"/>
    </g>
  </g>
</svg>
