<svg xmlns="http://www.w3.org/2000/svg" xmlns:xlink="http://www.w3.org/1999/xlink" width="48" height="48.257" viewBox="0 0 48 48.257">
  <defs>
    <clipPath id="clip-path">
      <rect id="Rectangle_446" data-name="Rectangle 446" width="48" height="48.257" fill="none"/>
    </clipPath>
  </defs>
  <g id="urlaub_-_ankunft_02" data-name="urlaub - ankunft 02" transform="translate(14.95 15.03)">
    <g id="Group_427" data-name="Group 427" transform="translate(-14.95 -15.03)" clip-path="url(#clip-path)">
      <path id="Path_1090" data-name="Path 1090" d="M6.917,7.347,12.7,29.822,1.138,41.22a4.174,4.174,0,0,0,0,5.779h0a4.174,4.174,0,0,0,5.779,0l11.4-11.559L40.79,41.22a2.569,2.569,0,0,0,2.569-4.334l-.482-.482L26.663,27.253,36.777,16.176l9.151.642a1.926,1.926,0,0,0,1.445-3.211l-.321-.321L39.185,8.792,34.69.925a1.926,1.926,0,0,0-3.532,1.124L31.8,11.2,20.884,21.313,11.573,5.26A2.594,2.594,0,0,0,6.757,7.186" transform="translate(-0.014 0.038)" fill="#f36b23"/>
    </g>
  </g>
</svg>
