<svg xmlns="http://www.w3.org/2000/svg" xmlns:xlink="http://www.w3.org/1999/xlink" width="28" height="28" viewBox="0 0 28 28">
  <defs>
    <clipPath id="clip-path">
      <rect id="Rectangle_442" data-name="Rectangle 442" width="28" height="28" fill="none"/>
    </clipPath>
  </defs>
  <g id="hinzufügen_02" data-name="hinzufügen 02" transform="translate(21 21)">
    <g id="Group_420" data-name="Group 420" transform="translate(-21 -21)" clip-path="url(#clip-path)">
      <path id="Path_1086" data-name="Path 1086" d="M28,13.6A14,14,0,1,0,13.806,28h.463A14,14,0,0,0,28,14.467V13.6m-7.133.8h-6v6a.667.667,0,0,1-1.333,0v-6h-6a.667.667,0,1,1,0-1.333h6v-6a.667.667,0,0,1,1.333,0v6h6a.667.667,0,0,1,0,1.333" transform="translate(-0.003 -0.001)" fill="#c9c9c9"/>
    </g>
  </g>
</svg>
