<svg xmlns="http://www.w3.org/2000/svg" width="28" height="31.848" viewBox="0 0 28 31.848">
  <g id="Group_374" data-name="Group 374" transform="translate(0.091)">
    <path id="Path_1016" data-name="Path 1016" d="M27.369,22.493,24.383,20.8l2.886-1.592a1,1,0,1,0-1-1.692l-3.881,2.19-3.085-1.791V14.033l3.085-1.791,3.881,2.19a1.025,1.025,0,1,0,1-1.791l-2.886-1.592,2.986-1.692a1,1,0,0,0-1-1.692L23.388,9.355V5.971a1,1,0,1,0-1.99,0V10.45l-3.085,1.791-3.384-1.99V6.768L18.81,4.479a1,1,0,0,0-1-1.692L14.928,4.379V1a1,1,0,0,0-1.99,0V4.379L10.052,2.787a1,1,0,0,0-1,1.692l3.881,2.289v3.583l-3.384,1.99L6.469,10.45V5.971a1,1,0,0,0-1.99,0V9.355L1.492,7.663a1,1,0,0,0-1,1.692l2.986,1.692L.6,12.64a1,1,0,0,0-.4,1.393,1.1,1.1,0,0,0,1.393.4l3.881-2.19,3.085,1.791v3.881L5.473,19.706,1.592,17.417a1,1,0,1,0-1,1.692L3.483,20.7.5,22.393a1,1,0,0,0-.4,1.493,1,1,0,0,0,1.393.4l2.986-1.692v3.284a1,1,0,0,0,1,1h0a1,1,0,0,0,1-1V21.4l3.085-1.791,3.384,1.99V25.18l-3.881,2.19a1,1,0,0,0-.4,1.393,1.1,1.1,0,0,0,1.393.4l2.886-1.692v3.384a1,1,0,0,0,1.99,0V27.469l2.886,1.692a1.025,1.025,0,1,0,1-1.791l-3.881-2.19V21.5l3.384-1.99L21.4,21.3v4.578a1,1,0,0,0,1,1h0a1,1,0,0,0,1-1V22.592l2.986,1.692a1.025,1.025,0,1,0,1-1.791M13.933,19.805l-3.384-1.99V14.033l3.384-1.99,3.384,1.99v3.881Z" transform="translate(0)" fill="#c9c9c9"/>
  </g>
</svg>
