<svg xmlns="http://www.w3.org/2000/svg" xmlns:xlink="http://www.w3.org/1999/xlink" width="28" height="31.898" viewBox="0 0 28 31.898">
  <defs>
    <clipPath id="clip-path">
      <rect id="Rectangle_414" data-name="Rectangle 414" width="28" height="31.898" fill="none"/>
    </clipPath>
  </defs>
  <g id="heizt" transform="translate(20 22.784)">
    <g id="Group_370" data-name="Group 370" transform="translate(-20 -22.784)" clip-path="url(#clip-path)">
      <path id="Path_1010" data-name="Path 1010" d="M19.782,31.9A1.181,1.181,0,0,1,18.6,30.716a8.388,8.388,0,0,1,2.127-5.671,6.379,6.379,0,0,0,0-8.388A8.388,8.388,0,0,1,18.6,10.987a8.388,8.388,0,0,1,2.127-5.671,6.143,6.143,0,0,0,1.536-4.135,1.181,1.181,0,0,1,2.363,0A8.388,8.388,0,0,1,22.5,6.852a6.143,6.143,0,0,0-1.654,4.253A6.143,6.143,0,0,0,22.5,15.358a8.624,8.624,0,0,1,0,11.223,6.143,6.143,0,0,0-1.536,4.135A1.181,1.181,0,0,1,19.782,31.9" transform="translate(3.375 0)" fill="#c9c9c9"/>
      <path id="Path_1011" data-name="Path 1011" d="M10.482,31.9A1.181,1.181,0,0,1,9.3,30.716a8.388,8.388,0,0,1,2.008-5.671,6.379,6.379,0,0,0,0-8.388A8.388,8.388,0,0,1,9.3,10.987a8.388,8.388,0,0,1,2.008-5.553,6.143,6.143,0,0,0,1.654-4.253,1.181,1.181,0,0,1,2.363,0A8.388,8.388,0,0,1,13.2,6.852a6.143,6.143,0,0,0-1.654,4.253A6.143,6.143,0,0,0,13.2,15.358a8.624,8.624,0,0,1,0,11.223,6.143,6.143,0,0,0-1.536,4.135A1.181,1.181,0,0,1,10.482,31.9" transform="translate(1.687 0)" fill="#c9c9c9"/>
      <path id="Path_1012" data-name="Path 1012" d="M1.182,31.9A1.181,1.181,0,0,1,0,30.716a8.388,8.388,0,0,1,2.127-5.671,6.143,6.143,0,0,0,1.654-4.253A6.143,6.143,0,0,0,2.127,16.54a8.312,8.312,0,0,1,0-11.105A6.143,6.143,0,0,0,3.663,1.181a1.181,1.181,0,0,1,2.363,0A8.388,8.388,0,0,1,4.017,6.852a6.143,6.143,0,0,0,0,8.388,8.388,8.388,0,0,1,2.127,5.671,8.388,8.388,0,0,1-2.127,5.671,6.143,6.143,0,0,0-1.654,4.135A1.181,1.181,0,0,1,1.182,31.9" transform="translate(0 0)" fill="#c9c9c9"/>
    </g>
  </g>
</svg>
