<svg xmlns="http://www.w3.org/2000/svg" xmlns:xlink="http://www.w3.org/1999/xlink" width="28" height="27.029" viewBox="0 0 28 27.029">
  <defs>
    <clipPath id="clip-path">
      <rect id="Rectangle_470" data-name="Rectangle 470" width="28" height="27.029" fill="none"/>
    </clipPath>
  </defs>
  <g id="hautpraum_02" data-name="hautpraum 02" transform="translate(20 19.306)">
    <g id="hautpraum_02-2" data-name="hautpraum 02" transform="translate(-20 -19.306)" clip-path="url(#clip-path)">
      <path id="Path_1121" data-name="Path 1121" d="M28,10.239a.875.875,0,0,0-.875-.613H17.762L14.875.614a.875.875,0,0,0-1.663,0L10.237,9.627H.875A.875.875,0,0,0,.35,11.2l7.525,5.687L5.075,25.9a.875.875,0,0,0,.35.962l.525.175.525-.175L14,21.352l7.613,5.513a.875.875,0,0,0,1.313-.962l-2.8-9.013,7.525-5.6a.875.875,0,0,0,.35-.962" transform="translate(0 -0.002)" fill="#c9c9c9"/>
    </g>
  </g>
</svg>
